<mxfile host="app.diagrams.net" modified="2021-04-18T21:20:13.821Z" agent="5.0 (Windows NT 10.0; Win64; x64) AppleWebKit/537.36 (KHTML, like Gecko) Chrome/89.0.4389.114 Safari/537.36 OPR/75.0.3969.171 (Edition Yx 08)" etag="okGYUXft5wHVyDSMpxSK" version="14.6.1" type="github">
  <diagram id="VAcT-QtsZBNn5VnRF8-B" name="Page-1">
    <mxGraphModel dx="1382" dy="795" grid="1" gridSize="10" guides="1" tooltips="1" connect="1" arrows="1" fold="1" page="1" pageScale="1" pageWidth="827" pageHeight="1169" math="0" shadow="0">
      <root>
        <mxCell id="0" />
        <mxCell id="1" parent="0" />
        <mxCell id="qqwGZMZRsGBv6UH_kft_-1" value="Магазин" style="swimlane;fontStyle=1;align=center;verticalAlign=top;childLayout=stackLayout;horizontal=1;startSize=26;horizontalStack=0;resizeParent=1;resizeParentMax=0;resizeLast=0;collapsible=1;marginBottom=0;" vertex="1" parent="1">
          <mxGeometry x="530" y="40" width="160" height="86" as="geometry">
            <mxRectangle x="80" y="40" width="80" height="26" as="alternateBounds" />
          </mxGeometry>
        </mxCell>
        <mxCell id="qqwGZMZRsGBv6UH_kft_-2" value="+ сотрудники: Сотрудник[ ]" style="text;strokeColor=none;fillColor=none;align=left;verticalAlign=top;spacingLeft=4;spacingRight=4;overflow=hidden;rotatable=0;points=[[0,0.5],[1,0.5]];portConstraint=eastwest;" vertex="1" parent="qqwGZMZRsGBv6UH_kft_-1">
          <mxGeometry y="26" width="160" height="26" as="geometry" />
        </mxCell>
        <mxCell id="qqwGZMZRsGBv6UH_kft_-3" value="+ адрес: String" style="text;strokeColor=none;fillColor=none;align=left;verticalAlign=top;spacingLeft=4;spacingRight=4;overflow=hidden;rotatable=0;points=[[0,0.5],[1,0.5]];portConstraint=eastwest;" vertex="1" parent="qqwGZMZRsGBv6UH_kft_-1">
          <mxGeometry y="52" width="160" height="26" as="geometry" />
        </mxCell>
        <mxCell id="qqwGZMZRsGBv6UH_kft_-4" value="" style="line;strokeWidth=1;fillColor=none;align=left;verticalAlign=middle;spacingTop=-1;spacingLeft=3;spacingRight=3;rotatable=0;labelPosition=right;points=[];portConstraint=eastwest;" vertex="1" parent="qqwGZMZRsGBv6UH_kft_-1">
          <mxGeometry y="78" width="160" height="8" as="geometry" />
        </mxCell>
        <mxCell id="qqwGZMZRsGBv6UH_kft_-5" value="Чек" style="swimlane;fontStyle=1;align=center;verticalAlign=top;childLayout=stackLayout;horizontal=1;startSize=26;horizontalStack=0;resizeParent=1;resizeParentMax=0;resizeLast=0;collapsible=1;marginBottom=0;" vertex="1" parent="1">
          <mxGeometry x="210" y="290" width="160" height="164" as="geometry" />
        </mxCell>
        <mxCell id="qqwGZMZRsGBv6UH_kft_-6" value="+ покупки: Покупка[ ]" style="text;strokeColor=none;fillColor=none;align=left;verticalAlign=top;spacingLeft=4;spacingRight=4;overflow=hidden;rotatable=0;points=[[0,0.5],[1,0.5]];portConstraint=eastwest;" vertex="1" parent="qqwGZMZRsGBv6UH_kft_-5">
          <mxGeometry y="26" width="160" height="26" as="geometry" />
        </mxCell>
        <mxCell id="qqwGZMZRsGBv6UH_kft_-7" value="+ стоимость: Rational" style="text;strokeColor=none;fillColor=none;align=left;verticalAlign=top;spacingLeft=4;spacingRight=4;overflow=hidden;rotatable=0;points=[[0,0.5],[1,0.5]];portConstraint=eastwest;" vertex="1" parent="qqwGZMZRsGBv6UH_kft_-5">
          <mxGeometry y="52" width="160" height="26" as="geometry" />
        </mxCell>
        <mxCell id="qqwGZMZRsGBv6UH_kft_-8" value="+ типОплаты: ТипОплаты" style="text;strokeColor=none;fillColor=none;align=left;verticalAlign=top;spacingLeft=4;spacingRight=4;overflow=hidden;rotatable=0;points=[[0,0.5],[1,0.5]];portConstraint=eastwest;" vertex="1" parent="qqwGZMZRsGBv6UH_kft_-5">
          <mxGeometry y="78" width="160" height="26" as="geometry" />
        </mxCell>
        <mxCell id="qqwGZMZRsGBv6UH_kft_-9" value="+ время: DateTime" style="text;strokeColor=none;fillColor=none;align=left;verticalAlign=top;spacingLeft=4;spacingRight=4;overflow=hidden;rotatable=0;points=[[0,0.5],[1,0.5]];portConstraint=eastwest;" vertex="1" parent="qqwGZMZRsGBv6UH_kft_-5">
          <mxGeometry y="104" width="160" height="26" as="geometry" />
        </mxCell>
        <mxCell id="qqwGZMZRsGBv6UH_kft_-10" value="+ кассир: Кассир" style="text;strokeColor=none;fillColor=none;align=left;verticalAlign=top;spacingLeft=4;spacingRight=4;overflow=hidden;rotatable=0;points=[[0,0.5],[1,0.5]];portConstraint=eastwest;" vertex="1" parent="qqwGZMZRsGBv6UH_kft_-5">
          <mxGeometry y="130" width="160" height="26" as="geometry" />
        </mxCell>
        <mxCell id="qqwGZMZRsGBv6UH_kft_-11" value="" style="line;strokeWidth=1;fillColor=none;align=left;verticalAlign=middle;spacingTop=-1;spacingLeft=3;spacingRight=3;rotatable=0;labelPosition=right;points=[];portConstraint=eastwest;" vertex="1" parent="qqwGZMZRsGBv6UH_kft_-5">
          <mxGeometry y="156" width="160" height="8" as="geometry" />
        </mxCell>
        <mxCell id="qqwGZMZRsGBv6UH_kft_-12" value="&lt;p style=&quot;margin: 0px ; margin-top: 4px ; text-align: center&quot;&gt;&lt;i&gt;&amp;lt;&amp;lt;enumeration&amp;gt;&amp;gt;&lt;/i&gt;&lt;br&gt;&lt;b&gt;ТипОплаты&lt;/b&gt;&lt;/p&gt;&lt;hr size=&quot;1&quot;&gt;&lt;p style=&quot;margin: 0px ; margin-left: 4px&quot;&gt;+ Наличная&lt;br&gt;&lt;/p&gt;&lt;p style=&quot;margin: 0px ; margin-left: 4px&quot;&gt;+ Безналичная&lt;/p&gt;&lt;p style=&quot;margin: 0px ; margin-left: 4px&quot;&gt;+ Смешанная&lt;/p&gt;" style="verticalAlign=top;align=left;overflow=fill;fontSize=12;fontFamily=Helvetica;html=1;" vertex="1" parent="1">
          <mxGeometry x="40" y="490" width="190" height="90" as="geometry" />
        </mxCell>
        <mxCell id="qqwGZMZRsGBv6UH_kft_-13" value="Покупка&#xa;" style="swimlane;fontStyle=1;align=center;verticalAlign=top;childLayout=stackLayout;horizontal=1;startSize=26;horizontalStack=0;resizeParent=1;resizeParentMax=0;resizeLast=0;collapsible=1;marginBottom=0;" vertex="1" parent="1">
          <mxGeometry x="390" y="530" width="230" height="86" as="geometry" />
        </mxCell>
        <mxCell id="qqwGZMZRsGBv6UH_kft_-14" value="+ товар: Товар" style="text;strokeColor=none;fillColor=none;align=left;verticalAlign=top;spacingLeft=4;spacingRight=4;overflow=hidden;rotatable=0;points=[[0,0.5],[1,0.5]];portConstraint=eastwest;" vertex="1" parent="qqwGZMZRsGBv6UH_kft_-13">
          <mxGeometry y="26" width="230" height="26" as="geometry" />
        </mxCell>
        <mxCell id="qqwGZMZRsGBv6UH_kft_-15" value="+ количество: ЛокализованноеЗначение" style="text;strokeColor=none;fillColor=none;align=left;verticalAlign=top;spacingLeft=4;spacingRight=4;overflow=hidden;rotatable=0;points=[[0,0.5],[1,0.5]];portConstraint=eastwest;" vertex="1" parent="qqwGZMZRsGBv6UH_kft_-13">
          <mxGeometry y="52" width="230" height="26" as="geometry" />
        </mxCell>
        <mxCell id="qqwGZMZRsGBv6UH_kft_-16" value="" style="line;strokeWidth=1;fillColor=none;align=left;verticalAlign=middle;spacingTop=-1;spacingLeft=3;spacingRight=3;rotatable=0;labelPosition=right;points=[];portConstraint=eastwest;" vertex="1" parent="qqwGZMZRsGBv6UH_kft_-13">
          <mxGeometry y="78" width="230" height="8" as="geometry" />
        </mxCell>
        <mxCell id="qqwGZMZRsGBv6UH_kft_-17" value="" style="endArrow=open;endFill=1;endSize=12;html=1;entryX=1;entryY=0.5;entryDx=0;entryDy=0;exitX=0.5;exitY=0;exitDx=0;exitDy=0;" edge="1" parent="1" source="qqwGZMZRsGBv6UH_kft_-13" target="qqwGZMZRsGBv6UH_kft_-6">
          <mxGeometry width="160" relative="1" as="geometry">
            <mxPoint x="490" y="329" as="sourcePoint" />
            <mxPoint x="650" y="340" as="targetPoint" />
            <Array as="points">
              <mxPoint x="505" y="329" />
            </Array>
          </mxGeometry>
        </mxCell>
        <mxCell id="qqwGZMZRsGBv6UH_kft_-18" value="" style="endArrow=open;endFill=1;endSize=12;html=1;entryX=0;entryY=0.5;entryDx=0;entryDy=0;exitX=0.5;exitY=0;exitDx=0;exitDy=0;" edge="1" parent="1" source="qqwGZMZRsGBv6UH_kft_-12" target="qqwGZMZRsGBv6UH_kft_-8">
          <mxGeometry width="160" relative="1" as="geometry">
            <mxPoint x="100" y="381" as="sourcePoint" />
            <mxPoint x="260" y="370" as="targetPoint" />
            <Array as="points">
              <mxPoint x="135" y="381" />
            </Array>
          </mxGeometry>
        </mxCell>
        <mxCell id="qqwGZMZRsGBv6UH_kft_-19" value="«interface»&lt;br&gt;&lt;b&gt;Сотрудник&lt;/b&gt;" style="html=1;" vertex="1" parent="1">
          <mxGeometry x="730" y="180" width="110" height="50" as="geometry" />
        </mxCell>
        <mxCell id="qqwGZMZRsGBv6UH_kft_-20" value="" style="endArrow=open;endFill=1;endSize=12;html=1;exitX=0.5;exitY=0;exitDx=0;exitDy=0;entryX=1;entryY=0.5;entryDx=0;entryDy=0;" edge="1" parent="1" source="qqwGZMZRsGBv6UH_kft_-19" target="qqwGZMZRsGBv6UH_kft_-2">
          <mxGeometry width="160" relative="1" as="geometry">
            <mxPoint x="820" y="90" as="sourcePoint" />
            <mxPoint x="785" y="70" as="targetPoint" />
            <Array as="points">
              <mxPoint x="785" y="79" />
            </Array>
          </mxGeometry>
        </mxCell>
        <mxCell id="qqwGZMZRsGBv6UH_kft_-21" value="Кассир" style="swimlane;fontStyle=1;childLayout=stackLayout;horizontal=1;startSize=26;fillColor=none;horizontalStack=0;resizeParent=1;resizeParentMax=0;resizeLast=0;collapsible=1;marginBottom=0;" vertex="1" parent="1">
          <mxGeometry x="840" y="280" width="140" height="52" as="geometry">
            <mxRectangle x="640" y="300" width="70" height="26" as="alternateBounds" />
          </mxGeometry>
        </mxCell>
        <mxCell id="qqwGZMZRsGBv6UH_kft_-22" value="+ пробитьПокупку()" style="text;strokeColor=none;fillColor=none;align=left;verticalAlign=top;spacingLeft=4;spacingRight=4;overflow=hidden;rotatable=0;points=[[0,0.5],[1,0.5]];portConstraint=eastwest;" vertex="1" parent="qqwGZMZRsGBv6UH_kft_-21">
          <mxGeometry y="26" width="140" height="26" as="geometry" />
        </mxCell>
        <mxCell id="qqwGZMZRsGBv6UH_kft_-23" value="Товаровед" style="swimlane;fontStyle=1;childLayout=stackLayout;horizontal=1;startSize=26;fillColor=none;horizontalStack=0;resizeParent=1;resizeParentMax=0;resizeLast=0;collapsible=1;marginBottom=0;" vertex="1" parent="1">
          <mxGeometry x="840" y="340" width="180" height="52" as="geometry">
            <mxRectangle x="640" y="300" width="70" height="26" as="alternateBounds" />
          </mxGeometry>
        </mxCell>
        <mxCell id="qqwGZMZRsGBv6UH_kft_-24" value="+ составитьТоварныйОтчет()" style="text;strokeColor=none;fillColor=none;align=left;verticalAlign=top;spacingLeft=4;spacingRight=4;overflow=hidden;rotatable=0;points=[[0,0.5],[1,0.5]];portConstraint=eastwest;" vertex="1" parent="qqwGZMZRsGBv6UH_kft_-23">
          <mxGeometry y="26" width="180" height="26" as="geometry" />
        </mxCell>
        <mxCell id="qqwGZMZRsGBv6UH_kft_-25" value="Оператор" style="swimlane;fontStyle=1;childLayout=stackLayout;horizontal=1;startSize=26;fillColor=none;horizontalStack=0;resizeParent=1;resizeParentMax=0;resizeLast=0;collapsible=1;marginBottom=0;" vertex="1" parent="1">
          <mxGeometry x="840" y="400" width="180" height="48" as="geometry">
            <mxRectangle x="640" y="300" width="70" height="26" as="alternateBounds" />
          </mxGeometry>
        </mxCell>
        <mxCell id="qqwGZMZRsGBv6UH_kft_-26" value="+ провестиИнвентаризацию()" style="text;strokeColor=none;fillColor=none;align=left;verticalAlign=top;spacingLeft=4;spacingRight=4;overflow=hidden;rotatable=0;points=[[0,0.5],[1,0.5]];portConstraint=eastwest;" vertex="1" parent="qqwGZMZRsGBv6UH_kft_-25">
          <mxGeometry y="26" width="180" height="22" as="geometry" />
        </mxCell>
        <mxCell id="qqwGZMZRsGBv6UH_kft_-27" value="Администратор" style="swimlane;fontStyle=1;childLayout=stackLayout;horizontal=1;startSize=26;fillColor=none;horizontalStack=0;resizeParent=1;resizeParentMax=0;resizeLast=0;collapsible=1;marginBottom=0;" vertex="1" parent="1">
          <mxGeometry x="840" y="460" width="180" height="52" as="geometry">
            <mxRectangle x="640" y="300" width="70" height="26" as="alternateBounds" />
          </mxGeometry>
        </mxCell>
        <mxCell id="qqwGZMZRsGBv6UH_kft_-28" value="+ составитьИтоговыйОтчет()" style="text;strokeColor=none;fillColor=none;align=left;verticalAlign=top;spacingLeft=4;spacingRight=4;overflow=hidden;rotatable=0;points=[[0,0.5],[1,0.5]];portConstraint=eastwest;" vertex="1" parent="qqwGZMZRsGBv6UH_kft_-27">
          <mxGeometry y="26" width="180" height="26" as="geometry" />
        </mxCell>
        <mxCell id="qqwGZMZRsGBv6UH_kft_-29" value="" style="endArrow=block;dashed=1;endFill=0;endSize=12;html=1;entryX=0.5;entryY=1;entryDx=0;entryDy=0;exitX=0;exitY=0.25;exitDx=0;exitDy=0;" edge="1" parent="1" source="qqwGZMZRsGBv6UH_kft_-21" target="qqwGZMZRsGBv6UH_kft_-19">
          <mxGeometry width="160" relative="1" as="geometry">
            <mxPoint x="785" y="310" as="sourcePoint" />
            <mxPoint x="780" y="320" as="targetPoint" />
            <Array as="points">
              <mxPoint x="785" y="293" />
            </Array>
          </mxGeometry>
        </mxCell>
        <mxCell id="qqwGZMZRsGBv6UH_kft_-30" value="" style="endArrow=block;dashed=1;endFill=0;endSize=12;html=1;entryX=0.5;entryY=1;entryDx=0;entryDy=0;exitX=0;exitY=0.25;exitDx=0;exitDy=0;" edge="1" parent="1" source="qqwGZMZRsGBv6UH_kft_-23" target="qqwGZMZRsGBv6UH_kft_-19">
          <mxGeometry width="160" relative="1" as="geometry">
            <mxPoint x="640" y="410" as="sourcePoint" />
            <mxPoint x="790" y="230" as="targetPoint" />
            <Array as="points">
              <mxPoint x="785" y="353" />
            </Array>
          </mxGeometry>
        </mxCell>
        <mxCell id="qqwGZMZRsGBv6UH_kft_-31" value="" style="endArrow=block;dashed=1;endFill=0;endSize=12;html=1;entryX=0.5;entryY=1;entryDx=0;entryDy=0;exitX=0;exitY=0.25;exitDx=0;exitDy=0;" edge="1" parent="1" source="qqwGZMZRsGBv6UH_kft_-25" target="qqwGZMZRsGBv6UH_kft_-19">
          <mxGeometry width="160" relative="1" as="geometry">
            <mxPoint x="630" y="410" as="sourcePoint" />
            <mxPoint x="750" y="280" as="targetPoint" />
            <Array as="points">
              <mxPoint x="785" y="413" />
            </Array>
          </mxGeometry>
        </mxCell>
        <mxCell id="qqwGZMZRsGBv6UH_kft_-32" value="" style="endArrow=block;dashed=1;endFill=0;endSize=12;html=1;entryX=0.5;entryY=1;entryDx=0;entryDy=0;exitX=0;exitY=0.25;exitDx=0;exitDy=0;" edge="1" parent="1" source="qqwGZMZRsGBv6UH_kft_-27" target="qqwGZMZRsGBv6UH_kft_-19">
          <mxGeometry width="160" relative="1" as="geometry">
            <mxPoint x="780" y="653.3333333333334" as="sourcePoint" />
            <mxPoint x="910" y="460" as="targetPoint" />
            <Array as="points">
              <mxPoint x="785" y="473" />
            </Array>
          </mxGeometry>
        </mxCell>
        <mxCell id="qqwGZMZRsGBv6UH_kft_-33" value="" style="endArrow=open;endFill=1;endSize=12;html=1;exitX=-0.009;exitY=0.391;exitDx=0;exitDy=0;entryX=1;entryY=0.5;entryDx=0;entryDy=0;exitPerimeter=0;" edge="1" parent="1" source="qqwGZMZRsGBv6UH_kft_-21" target="qqwGZMZRsGBv6UH_kft_-10">
          <mxGeometry width="160" relative="1" as="geometry">
            <mxPoint x="300" y="620" as="sourcePoint" />
            <mxPoint x="310" y="560" as="targetPoint" />
            <Array as="points">
              <mxPoint x="610" y="300" />
              <mxPoint x="610" y="433" />
            </Array>
          </mxGeometry>
        </mxCell>
        <mxCell id="qqwGZMZRsGBv6UH_kft_-34" value="«interface»&lt;br&gt;&lt;b&gt;ЛокализованноеЗначение&lt;/b&gt;" style="html=1;" vertex="1" parent="1">
          <mxGeometry x="670" y="680" width="160" height="50" as="geometry" />
        </mxCell>
        <mxCell id="qqwGZMZRsGBv6UH_kft_-35" value="Вес" style="swimlane;fontStyle=1;childLayout=stackLayout;horizontal=1;startSize=26;fillColor=none;horizontalStack=0;resizeParent=1;resizeParentMax=0;resizeLast=0;collapsible=1;marginBottom=0;" vertex="1" parent="1">
          <mxGeometry x="590" y="780" width="140" height="50" as="geometry">
            <mxRectangle x="640" y="300" width="70" height="26" as="alternateBounds" />
          </mxGeometry>
        </mxCell>
        <mxCell id="qqwGZMZRsGBv6UH_kft_-36" value="КоличествоШтук" style="swimlane;fontStyle=1;childLayout=stackLayout;horizontal=1;startSize=26;fillColor=none;horizontalStack=0;resizeParent=1;resizeParentMax=0;resizeLast=0;collapsible=1;marginBottom=0;" vertex="1" parent="1">
          <mxGeometry x="770" y="780" width="140" height="50" as="geometry">
            <mxRectangle x="640" y="300" width="70" height="26" as="alternateBounds" />
          </mxGeometry>
        </mxCell>
        <mxCell id="qqwGZMZRsGBv6UH_kft_-37" value="" style="endArrow=block;dashed=1;endFill=0;endSize=12;html=1;entryX=0.5;entryY=1;entryDx=0;entryDy=0;exitX=0.5;exitY=0;exitDx=0;exitDy=0;" edge="1" parent="1" source="qqwGZMZRsGBv6UH_kft_-35" target="qqwGZMZRsGBv6UH_kft_-34">
          <mxGeometry width="160" relative="1" as="geometry">
            <mxPoint x="410" y="890" as="sourcePoint" />
            <mxPoint x="570" y="890" as="targetPoint" />
            <Array as="points">
              <mxPoint x="660" y="760" />
              <mxPoint x="750" y="760" />
            </Array>
          </mxGeometry>
        </mxCell>
        <mxCell id="qqwGZMZRsGBv6UH_kft_-38" value="" style="endArrow=block;dashed=1;endFill=0;endSize=12;html=1;entryX=0.5;entryY=1;entryDx=0;entryDy=0;exitX=0.5;exitY=0;exitDx=0;exitDy=0;" edge="1" parent="1" source="qqwGZMZRsGBv6UH_kft_-36" target="qqwGZMZRsGBv6UH_kft_-34">
          <mxGeometry width="160" relative="1" as="geometry">
            <mxPoint x="360" y="770" as="sourcePoint" />
            <mxPoint x="520" y="770" as="targetPoint" />
            <Array as="points">
              <mxPoint x="840" y="760" />
              <mxPoint x="750" y="760" />
            </Array>
          </mxGeometry>
        </mxCell>
        <mxCell id="qqwGZMZRsGBv6UH_kft_-39" value="" style="endArrow=open;endFill=1;endSize=12;html=1;entryX=1;entryY=0.5;entryDx=0;entryDy=0;exitX=0.5;exitY=0;exitDx=0;exitDy=0;" edge="1" parent="1" source="qqwGZMZRsGBv6UH_kft_-34" target="qqwGZMZRsGBv6UH_kft_-15">
          <mxGeometry width="160" relative="1" as="geometry">
            <mxPoint x="380" y="710" as="sourcePoint" />
            <mxPoint x="540" y="710" as="targetPoint" />
            <Array as="points">
              <mxPoint x="750" y="595" />
            </Array>
          </mxGeometry>
        </mxCell>
        <mxCell id="qqwGZMZRsGBv6UH_kft_-40" value="Товар" style="swimlane;fontStyle=1;childLayout=stackLayout;horizontal=1;startSize=26;fillColor=none;horizontalStack=0;resizeParent=1;resizeParentMax=0;resizeLast=0;collapsible=1;marginBottom=0;" vertex="1" parent="1">
          <mxGeometry x="870" y="556" width="140" height="78" as="geometry">
            <mxRectangle x="640" y="300" width="70" height="26" as="alternateBounds" />
          </mxGeometry>
        </mxCell>
        <mxCell id="qqwGZMZRsGBv6UH_kft_-41" value="+ кодТовара: Int" style="text;strokeColor=none;fillColor=none;align=left;verticalAlign=top;spacingLeft=4;spacingRight=4;overflow=hidden;rotatable=0;points=[[0,0.5],[1,0.5]];portConstraint=eastwest;" vertex="1" parent="qqwGZMZRsGBv6UH_kft_-40">
          <mxGeometry y="26" width="140" height="26" as="geometry" />
        </mxCell>
        <mxCell id="qqwGZMZRsGBv6UH_kft_-42" value="+ именование: String" style="text;strokeColor=none;fillColor=none;align=left;verticalAlign=top;spacingLeft=4;spacingRight=4;overflow=hidden;rotatable=0;points=[[0,0.5],[1,0.5]];portConstraint=eastwest;" vertex="1" parent="qqwGZMZRsGBv6UH_kft_-40">
          <mxGeometry y="52" width="140" height="26" as="geometry" />
        </mxCell>
        <mxCell id="qqwGZMZRsGBv6UH_kft_-43" value="" style="endArrow=open;endFill=1;endSize=12;html=1;entryX=1;entryY=0.5;entryDx=0;entryDy=0;" edge="1" parent="1" target="qqwGZMZRsGBv6UH_kft_-14">
          <mxGeometry width="160" relative="1" as="geometry">
            <mxPoint x="870" y="569" as="sourcePoint" />
            <mxPoint x="840" y="520" as="targetPoint" />
          </mxGeometry>
        </mxCell>
        <mxCell id="qqwGZMZRsGBv6UH_kft_-44" value="Покупатель" style="swimlane;fontStyle=1;align=center;verticalAlign=top;childLayout=stackLayout;horizontal=1;startSize=26;horizontalStack=0;resizeParent=1;resizeParentMax=0;resizeLast=0;collapsible=1;marginBottom=0;" vertex="1" parent="1">
          <mxGeometry x="50" y="140" width="300" height="60" as="geometry" />
        </mxCell>
        <mxCell id="qqwGZMZRsGBv6UH_kft_-45" value="" style="line;strokeWidth=1;fillColor=none;align=left;verticalAlign=middle;spacingTop=-1;spacingLeft=3;spacingRight=3;rotatable=0;labelPosition=right;points=[];portConstraint=eastwest;" vertex="1" parent="qqwGZMZRsGBv6UH_kft_-44">
          <mxGeometry y="26" width="300" height="8" as="geometry" />
        </mxCell>
        <mxCell id="qqwGZMZRsGBv6UH_kft_-46" value="+ купить(покупки: Покупка[ ], кассир: Кассир) : Чек" style="text;strokeColor=none;fillColor=none;align=left;verticalAlign=top;spacingLeft=4;spacingRight=4;overflow=hidden;rotatable=0;points=[[0,0.5],[1,0.5]];portConstraint=eastwest;" vertex="1" parent="qqwGZMZRsGBv6UH_kft_-44">
          <mxGeometry y="34" width="300" height="26" as="geometry" />
        </mxCell>
        <mxCell id="qqwGZMZRsGBv6UH_kft_-47" value="Поставщик" style="swimlane;fontStyle=1;align=center;verticalAlign=top;childLayout=stackLayout;horizontal=1;startSize=26;horizontalStack=0;resizeParent=1;resizeParentMax=0;resizeLast=0;collapsible=1;marginBottom=0;" vertex="1" parent="1">
          <mxGeometry x="1205" y="270" width="425" height="60" as="geometry" />
        </mxCell>
        <mxCell id="qqwGZMZRsGBv6UH_kft_-48" value="" style="line;strokeWidth=1;fillColor=none;align=left;verticalAlign=middle;spacingTop=-1;spacingLeft=3;spacingRight=3;rotatable=0;labelPosition=right;points=[];portConstraint=eastwest;" vertex="1" parent="qqwGZMZRsGBv6UH_kft_-47">
          <mxGeometry y="26" width="425" height="8" as="geometry" />
        </mxCell>
        <mxCell id="qqwGZMZRsGBv6UH_kft_-49" value="+ совершитьПоставку(товаровед: Товаровед, склад: Склад): Накладная" style="text;strokeColor=none;fillColor=none;align=left;verticalAlign=top;spacingLeft=4;spacingRight=4;overflow=hidden;rotatable=0;points=[[0,0.5],[1,0.5]];portConstraint=eastwest;" vertex="1" parent="qqwGZMZRsGBv6UH_kft_-47">
          <mxGeometry y="34" width="425" height="26" as="geometry" />
        </mxCell>
        <mxCell id="qqwGZMZRsGBv6UH_kft_-50" value="Склад" style="swimlane;fontStyle=1;align=center;verticalAlign=top;childLayout=stackLayout;horizontal=1;startSize=26;horizontalStack=0;resizeParent=1;resizeParentMax=0;resizeLast=0;collapsible=1;marginBottom=0;" vertex="1" parent="1">
          <mxGeometry x="1150" y="550" width="350" height="60" as="geometry" />
        </mxCell>
        <mxCell id="qqwGZMZRsGBv6UH_kft_-51" value="+ остаткиТовара: Map&lt;Товар, ЛокализованноеЗначение&gt;" style="text;strokeColor=none;fillColor=none;align=left;verticalAlign=top;spacingLeft=4;spacingRight=4;overflow=hidden;rotatable=0;points=[[0,0.5],[1,0.5]];portConstraint=eastwest;" vertex="1" parent="qqwGZMZRsGBv6UH_kft_-50">
          <mxGeometry y="26" width="350" height="26" as="geometry" />
        </mxCell>
        <mxCell id="qqwGZMZRsGBv6UH_kft_-52" value="" style="line;strokeWidth=1;fillColor=none;align=left;verticalAlign=middle;spacingTop=-1;spacingLeft=3;spacingRight=3;rotatable=0;labelPosition=right;points=[];portConstraint=eastwest;" vertex="1" parent="qqwGZMZRsGBv6UH_kft_-50">
          <mxGeometry y="52" width="350" height="8" as="geometry" />
        </mxCell>
        <mxCell id="qqwGZMZRsGBv6UH_kft_-53" value="" style="endArrow=open;endFill=1;endSize=12;html=1;exitX=1;exitY=0.132;exitDx=0;exitDy=0;exitPerimeter=0;entryX=0;entryY=0.5;entryDx=0;entryDy=0;" edge="1" parent="1" source="qqwGZMZRsGBv6UH_kft_-40" target="qqwGZMZRsGBv6UH_kft_-51">
          <mxGeometry width="160" relative="1" as="geometry">
            <mxPoint x="1010" y="595" as="sourcePoint" />
            <mxPoint x="1240" y="690" as="targetPoint" />
            <Array as="points">
              <mxPoint x="1080" y="566" />
              <mxPoint x="1080" y="589" />
            </Array>
          </mxGeometry>
        </mxCell>
        <mxCell id="qqwGZMZRsGBv6UH_kft_-54" value="" style="endArrow=open;endFill=1;endSize=12;html=1;exitX=1;exitY=0.5;exitDx=0;exitDy=0;entryX=0;entryY=0.5;entryDx=0;entryDy=0;" edge="1" parent="1" source="qqwGZMZRsGBv6UH_kft_-34" target="qqwGZMZRsGBv6UH_kft_-51">
          <mxGeometry width="160" relative="1" as="geometry">
            <mxPoint x="980" y="740" as="sourcePoint" />
            <mxPoint x="1220" y="705" as="targetPoint" />
            <Array as="points">
              <mxPoint x="1080" y="705" />
              <mxPoint x="1080" y="590" />
            </Array>
          </mxGeometry>
        </mxCell>
        <mxCell id="qqwGZMZRsGBv6UH_kft_-55" value="&amp;lt;&amp;lt;use&amp;gt;&amp;gt;" style="html=1;verticalAlign=bottom;endArrow=open;dashed=1;endSize=8;exitX=1;exitY=0.25;exitDx=0;exitDy=0;entryX=0.25;entryY=0;entryDx=0;entryDy=0;" edge="1" parent="1" source="qqwGZMZRsGBv6UH_kft_-44" target="qqwGZMZRsGBv6UH_kft_-13">
          <mxGeometry relative="1" as="geometry">
            <mxPoint x="460" y="150" as="sourcePoint" />
            <mxPoint x="380" y="150" as="targetPoint" />
            <Array as="points">
              <mxPoint x="448" y="155" />
            </Array>
          </mxGeometry>
        </mxCell>
        <mxCell id="qqwGZMZRsGBv6UH_kft_-56" value="&amp;lt;&amp;lt;use&amp;gt;&amp;gt;" style="html=1;verticalAlign=bottom;endArrow=open;dashed=1;endSize=8;entryX=1;entryY=0.25;entryDx=0;entryDy=0;" edge="1" parent="1" target="qqwGZMZRsGBv6UH_kft_-23">
          <mxGeometry relative="1" as="geometry">
            <mxPoint x="1200" y="290" as="sourcePoint" />
            <mxPoint x="1110" y="370" as="targetPoint" />
            <Array as="points">
              <mxPoint x="1060" y="290" />
              <mxPoint x="1060" y="353" />
            </Array>
          </mxGeometry>
        </mxCell>
        <mxCell id="qqwGZMZRsGBv6UH_kft_-57" value="&amp;lt;&amp;lt;use&amp;gt;&amp;gt;" style="endArrow=open;endSize=12;dashed=1;html=1;exitX=0.479;exitY=1.06;exitDx=0;exitDy=0;exitPerimeter=0;entryX=0.744;entryY=0.008;entryDx=0;entryDy=0;entryPerimeter=0;" edge="1" parent="1" source="qqwGZMZRsGBv6UH_kft_-49" target="qqwGZMZRsGBv6UH_kft_-50">
          <mxGeometry width="160" relative="1" as="geometry">
            <mxPoint x="1360" y="470" as="sourcePoint" />
            <mxPoint x="1408" y="550" as="targetPoint" />
          </mxGeometry>
        </mxCell>
      </root>
    </mxGraphModel>
  </diagram>
</mxfile>
